<svg version="1.1" xmlns="http://www.w3.org/2000/svg" xmlns:xlink="http://www.w3.org/1999/xlink" width="38.44782" height="93.35819" viewBox="0,0,38.44782,93.35819"><g transform="translate(-220.93668,-132.96919)"><g data-paper-data="{&quot;isPaintingLayer&quot;:true}" fill-rule="nonzero" stroke-linejoin="miter" stroke-miterlimit="10" stroke-dasharray="" stroke-dashoffset="0" style="mix-blend-mode: normal"><path d="M234.86087,136.32854l2.63832,1.04443l0.83501,-2.94513l1.70037,2.64819l2.23633,-1.94378l-0.99764,6.97776l-3.66378,0.51086z" fill="#ffcab8" stroke="none" stroke-width="0" stroke-linecap="round"/><path d="M237.42114,201.97323c0,0 -0.49021,1.84139 -1.19274,3.21086c-0.86679,1.68965 -3.61952,5.03576 -3.61952,5.03576l0.82515,15.01808c0,0 -0.84275,0.34963 -1.22239,0.08645c-0.28699,-0.19896 -0.85627,-1.52749 -0.85627,-1.52749l0.15827,-3.01979l-1.11723,-11.58441c0,0 1.14619,-1.53907 1.36785,-2.92805c0.22165,-1.38898 0.22908,-4.32575 0.22908,-4.32575z" fill="#ffcab8" stroke="none" stroke-width="0" stroke-linecap="round"/><path d="M250.91822,192.64615c0,0 1.32006,0.72767 1.96589,2.0645c1.50107,3.10716 2.33242,7.38908 2.33242,7.38908l-3.48798,10.55741l-6.76567,2.51823l-3.43106,2.60547l-0.72662,-2.49326l3.76624,-0.67434l6.04192,-3.52271l1.6577,-9.16958l-4.13893,-2.62245z" fill="#ffcab8" stroke="none" stroke-width="0" stroke-linecap="round"/><path d="M237.17828,153.42665c0,0 -5.74756,2.2039 -4.763,-1.39435c0.28923,-1.05706 5.14709,-0.56022 5.14709,-0.56022c0,0 0.38978,-3.54054 2.63351,-3.43713c5.15579,0.23761 5.35065,4.53093 5.35065,4.53093l6.47751,4.45836v2.96714l-8.94581,-1.43326l0.43639,0.30898l8.74605,28.86238c0,0 -1.08098,6.4054 -2.71455,10.03724c-0.82298,1.82968 -5.17078,7.55222 -5.17078,7.55222l-7.08779,14.84024l0.41248,5.21263h-3.80217c0,0 0.80756,-3.35733 1.28526,-5.69188c0.84088,-4.10946 3.4816,-17.82314 3.4816,-17.82314l-6.3618,0.06108c0,0 0.08674,2.37341 -0.28148,5.06954c-0.1777,1.30112 -3.31757,3.53128 -3.31757,3.53128l0.27128,8.93801l3.71292,5.88726h-4.49347l-7.25792,-32.91027l15.54868,-12.66249z" fill="#ffcab8" stroke="none" stroke-width="0" stroke-linecap="round"/><path d="M241.07339,202.27622c0,0 -0.49021,1.84139 -1.19274,3.21086c-0.86679,1.68965 -3.61952,5.03576 -3.61952,5.03576l0.82515,15.01808c0,0 -0.84275,0.34963 -1.22239,0.08645c-0.28699,-0.19896 -0.85627,-1.52749 -0.85627,-1.52749l0.15827,-3.01979l-1.11723,-11.58441c0,0 1.14619,-1.53907 1.36785,-2.92805c0.22165,-1.38898 0.22908,-4.32575 0.22908,-4.32575z" fill="none" stroke="#000000" stroke-width="1" stroke-linecap="round"/><path d="M240.57148,153.88222c0,0 -5.74756,2.2039 -4.763,-1.39435c0.28923,-1.05706 5.14709,-0.56022 5.14709,-0.56022c0,0 0.38978,-3.54054 2.63351,-3.43713c5.15579,0.23761 5.35065,4.53093 5.35065,4.53093l6.47751,4.45836v2.96714l-8.94581,-1.43326l0.43639,0.30898l8.74605,28.86238c0,0 -1.08098,6.4054 -2.71455,10.03724c-0.82298,1.82968 -5.17078,7.55222 -5.17078,7.55222l-7.08779,14.84024l0.41248,5.21263h-3.80217c0,0 0.80756,-3.35733 1.28526,-5.69188c0.84088,-4.10946 3.4816,-17.82314 3.4816,-17.82314l-6.3618,0.06108c0,0 0.08674,2.37341 -0.28148,5.06954c-0.1777,1.30112 -3.31757,3.53128 -3.31757,3.53128l0.27128,8.93801l3.71292,5.88726h-4.49347l-7.25792,-32.91027l15.54868,-12.66249z" fill="none" stroke="#000000" stroke-width="1" stroke-linecap="round"/><path d="M243.58994,148.09882l-2.08775,0.54741l0.05048,-4.25982z" fill="#000000" stroke="none" stroke-width="0" stroke-linecap="round"/><path d="M246.55321,148.71459l-1.88394,-0.6061l1.21671,-2.78755z" fill="#000000" stroke="none" stroke-width="0" stroke-linecap="round"/><path d="M244.8584,145.509c-0.16412,-0.56016 0.15695,-1.14732 0.71712,-1.31144c0.56017,-0.16412 1.14732,0.15694 1.31144,0.71711c0.16412,0.56016 -0.15694,1.14733 -0.71711,1.31145c-0.56017,0.16412 -1.14733,-0.15695 -1.31145,-0.71712z" fill="#000000" stroke="none" stroke-width="0" stroke-linecap="butt"/><path d="M244.59073,153.79531c0,-0.50016 0.40546,-0.90563 0.90563,-0.90563c0.50017,0 0.90563,0.40546 0.90563,0.90563c0,0.50016 -0.40546,0.90564 -0.90563,0.90564c-0.50017,0 -0.90563,-0.40547 -0.90563,-0.90564z" fill="#000000" stroke="none" stroke-width="0" stroke-linecap="butt"/><path d="M249.62733,159.10501l2.98386,-3.01343" fill="none" stroke="#000000" stroke-width="1" stroke-linecap="round"/><path d="M235.56926,202.53078l-0.59936,-4.32531l0.62608,4.31768" fill="none" stroke="#000000" stroke-width="1" stroke-linecap="round"/><path d="M241.41204,200.31931l0.62608,1.62781c0,0 -0.66966,-1.16744 -0.90588,-2.88863c-0.23622,-1.72119 1.0256,-3.57402 1.0256,-3.57402l-0.87101,1.82964" fill="none" stroke="#000000" stroke-width="1" stroke-linecap="round"/><path d="M237.1176,136.07332l2.63832,1.04443l0.83501,-2.94513l1.70037,2.64819l2.23633,-1.94378l-0.99764,6.97776l-3.66378,0.51086z" fill="none" stroke="#000000" stroke-width="1" stroke-linecap="round"/><path d="M240.72418,166.44444l-0.02602,-4.02378l3.34737,1.95553z" fill="none" stroke="#000000" stroke-width="1" stroke-linecap="round"/><path d="M249.78531,179.16361l-2.79989,-3.32444l4.13076,-0.68687z" fill="none" stroke="#000000" stroke-width="1" stroke-linecap="round"/><path d="M253.00913,190.79806l-5.90598,-1.42334l4.08146,-4.19506z" fill="none" stroke="#000000" stroke-width="1" stroke-linecap="round"/><path d="M234.99628,188.36497l0.86901,-4.46469l3.27299,2.91388z" fill="none" stroke="#000000" stroke-width="1" stroke-linecap="round"/><path d="M234.04709,195.40065l-1.44482,-3.48801l3.6005,0.51648z" fill="none" stroke="#000000" stroke-width="1" stroke-linecap="round"/><path d="M225.84549,198.2562l-1.14798,-4.58626l4.36478,1.3021z" fill="none" stroke="#000000" stroke-width="1" stroke-linecap="round"/><path d="M240.21933,191.34404l2.17362,-2.69313l1.16385,3.12458z" fill="none" stroke="#000000" stroke-width="1" stroke-linecap="round"/><path d="M242.68245,183.42279l0.66351,-3.40889l2.499,2.22481z" fill="none" stroke="#000000" stroke-width="1" stroke-linecap="round"/><path d="M244.10082,172.59864l0.78338,-4.02478l2.9505,2.62677z" fill="none" stroke="#000000" stroke-width="1" stroke-linecap="round"/><path d="M222.63369,203.85095l-0.43243,1.68422l1.15917,0.23533l-1.12654,-6.40129l2.94742,-2.66775" fill="none" stroke="#000000" stroke-width="1" stroke-linecap="round"/><path d="M254.57047,193.78646c0,0 1.32006,0.72767 1.96589,2.0645c1.50107,3.10716 2.33242,7.38908 2.33242,7.38908l-3.48798,10.55741l-6.76567,2.51823l-3.43106,2.60547l-0.72662,-2.49326l3.76624,-0.67434l6.04192,-3.52271l1.6577,-9.16958l-4.13893,-2.62245z" fill="none" stroke="#000000" stroke-width="1" stroke-linecap="round"/><path d="M240.56627,144.74736c-0.16412,-0.56016 0.15695,-1.14732 0.71712,-1.31144c0.56017,-0.16412 1.14732,0.15694 1.31144,0.71711c0.16412,0.56016 -0.15694,1.14733 -0.71711,1.31145c-0.56017,0.16412 -1.14733,-0.15695 -1.31145,-0.71712z" fill="#000000" stroke="none" stroke-width="0" stroke-linecap="butt"/><path d="" fill="#000000" stroke="#000000" stroke-width="2.5" stroke-linecap="round"/><path d="" fill="none" stroke="#000000" stroke-width="2.5" stroke-linecap="round"/><path d="" fill="#000000" stroke="none" stroke-width="0" stroke-linecap="round"/><path d="" fill="#000000" stroke="none" stroke-width="0" stroke-linecap="round"/><path d="" fill="#000000" stroke="none" stroke-width="0" stroke-linecap="butt"/><path d="" fill="#000000" stroke="none" stroke-width="0" stroke-linecap="butt"/><path d="" fill="none" stroke="#000000" stroke-width="2.5" stroke-linecap="round"/><path d="" fill="none" stroke="#000000" stroke-width="2.5" stroke-linecap="round"/><path d="" fill="none" stroke="#000000" stroke-width="2.5" stroke-linecap="round"/><path d="" fill="#000000" stroke="none" stroke-width="0" stroke-linecap="round"/><path d="" fill="#000000" stroke="none" stroke-width="0" stroke-linecap="round"/><path d="" fill="#000000" stroke="none" stroke-width="0" stroke-linecap="round"/><path d="" fill="#000000" stroke="none" stroke-width="0" stroke-linecap="round"/><path d="" fill="#000000" stroke="none" stroke-width="0" stroke-linecap="round"/><path d="" fill="#000000" stroke="none" stroke-width="0" stroke-linecap="round"/><path d="" fill="#000000" stroke="none" stroke-width="0" stroke-linecap="round"/><path d="" fill="#000000" stroke="none" stroke-width="0" stroke-linecap="round"/><path d="" fill="#000000" stroke="none" stroke-width="0" stroke-linecap="round"/><path d="" fill="#000000" stroke="none" stroke-width="0" stroke-linecap="round"/><path d="" fill="none" stroke="#000000" stroke-width="2.5" stroke-linecap="round"/><path d="" fill="#000000" stroke="#000000" stroke-width="2.5" stroke-linecap="round"/><path d="" fill="#000000" stroke="none" stroke-width="0" stroke-linecap="butt"/><path d="M239.3994,154.50321l-1.785,27.61419" fill="none" stroke="#000000" stroke-width="1" stroke-linecap="round"/><path d="M239.81132,151.74431c0,0 -0.1378,-1.26119 0.7348,-2.0239c0.8726,-0.76271 1.60484,-1.13727 1.60484,-1.13727" fill="none" stroke="#000000" stroke-width="1" stroke-linecap="round"/></g></g></svg>