<svg version="1.1" xmlns="http://www.w3.org/2000/svg" xmlns:xlink="http://www.w3.org/1999/xlink" width="56.43051" height="75.25441" viewBox="0,0,56.43051,75.25441"><g transform="translate(-186.03927,-75.79773)"><g data-paper-data="{&quot;isPaintingLayer&quot;:true}" fill-rule="nonzero" stroke-linejoin="miter" stroke-miterlimit="10" stroke-dasharray="" stroke-dashoffset="0" style="mix-blend-mode: normal"><path d="M200.71848,75.79773l20.41858,19.05042l-25.82015,7.56089z" fill="#f4a000" stroke="none" stroke-width="0" stroke-linecap="round"/><path d="M242.46978,94.14487l-18.22519,56.90727l-38.20532,-43.06498z" fill="#fed158" stroke="none" stroke-width="0" stroke-linecap="round"/><path d="M197.11792,146.94111l-1.5436,-28.43278c0,0 8.23233,-4.62303 16.81947,-2.96001c2.24787,0.43533 0.97754,-1.73681 1.30111,-4.50769c0.11028,-0.94435 0.21161,-1.98647 0.28507,-3.08332c0.07309,-1.09131 0.11861,-2.23681 0.11792,-3.39408c-0.00048,-0.81252 -0.02374,-1.63084 -0.07622,-2.44029c-0.07943,-1.22535 -7.87913,-8.31286 -7.87913,-8.31286c0,0 12.60253,2.11531 14.30918,1.56412c7.21026,-1.75326 11.22522,9.01573 11.22522,9.01573c0,0 -7.82745,2.76877 -7.63282,4.26783c0.82786,6.3764 1.28878,7.17607 1.10548,11.67369c-0.1833,4.49762 -2.11029,10.11062 -2.46123,13.92628c-0.43691,4.75024 -3.38003,13.01286 -3.38003,13.01286" fill="#ffffff" stroke="none" stroke-width="0" stroke-linecap="round"/><path d="M197.91846,146.08936l3.07638,-23.01977l19.46605,-5.81429l5.13897,14.489l-0.89109,7.32682l-11.23072,5.7664" fill="none" stroke="#000000" stroke-width="2.5" stroke-linecap="round"/><path d="M205.03433,146.4473l-4.475,-24.24692l12.67212,-7.5044l0.51988,-16.66146l-1.66889,-4.11323l3.67699,0.2012c0,0 3.31072,-3.16852 7.37835,1.12051c1.74257,1.83742 3.42092,4.23462 3.42092,4.23462l-1.28089,4.02053l-5.7615,-2.19961l4.58569,20.5886l-7.51696,24.4851" fill="#ffffff" stroke="#000000" stroke-width="2.5" stroke-linecap="round"/><path d="M194.70065,131.73646l-0.68369,1.03503l1.43641,0.16436l-0.55837,-5.28707l5.45519,-2.28855" fill="none" stroke="#000000" stroke-width="2.5" stroke-linecap="round"/><path d="M218.39861,96.5957c0,-0.50016 0.40546,-0.90563 0.90563,-0.90563c0.50017,0 0.90563,0.40546 0.90563,0.90563c0,0.50016 -0.40546,0.90564 -0.90563,0.90564c-0.50017,0 -0.90563,-0.40547 -0.90563,-0.90564z" fill="#000000" stroke="none" stroke-width="0" stroke-linecap="butt"/><path d="M223.71415,96.61898l-2.27286,4.53625" fill="none" stroke="#000000" stroke-width="2.5" stroke-linecap="round"/><path d="M210.13413,85.60193l2.32821,0.69931l0.74178,-2.28989l1.49754,1.96483l1.97772,-1.57608l-0.22754,5.28513l-4.48088,0.72465z" fill="#000000" stroke="none" stroke-width="0" stroke-linecap="round"/><path d="M210.44112,145.81045l-1.29379,-14.38287l5.0818,0.04339l-3.30305,14.32626" fill="none" stroke="#000000" stroke-width="2.5" stroke-linecap="round"/><path d="M213.55061,108.94148l-0.03057,-4.72765l3.93291,2.2976z" fill="#000000" stroke="none" stroke-width="0" stroke-linecap="round"/><path d="M219.62633,114.63295l-3.04554,-3.61611l4.49317,-0.74713z" fill="#000000" stroke="none" stroke-width="0" stroke-linecap="round"/><path d="M221.5179,123.81377l-7.57075,-1.82455l5.23193,-5.37755z" fill="#000000" stroke="none" stroke-width="0" stroke-linecap="round"/><path d="M206.96613,122.73543l0.90326,-4.64066l3.40199,3.02873z" fill="#000000" stroke="none" stroke-width="0" stroke-linecap="round"/><path d="M212.16243,129.53769l-1.80927,-4.36785l4.50871,0.64676z" fill="#000000" stroke="none" stroke-width="0" stroke-linecap="round"/><path d="M202.40476,127.79524l-0.62262,-4.68657l4.18978,1.78676z" fill="#000000" stroke="none" stroke-width="0" stroke-linecap="round"/><path d="M219.79107,92.40808l-2.71596,-0.12117l1.65871,-3.87529z" fill="#000000" stroke="none" stroke-width="0" stroke-linecap="round"/><path d="M222.99373,93.37034l-2.63863,-0.6548l2.3909,-3.47171z" fill="#000000" stroke="none" stroke-width="0" stroke-linecap="round"/><path d="M224.22163,82.94438l8.06473,3.69773l-7.02699,4.86654z" fill="#fed158" stroke="none" stroke-width="0" stroke-linecap="round"/></g></g></svg>