<svg version="1.1" xmlns="http://www.w3.org/2000/svg" xmlns:xlink="http://www.w3.org/1999/xlink" width="59.84555" height="97.0931" viewBox="0,0,59.84555,97.0931"><g transform="translate(-210.07723,-131.45345)"><g data-paper-data="{&quot;isPaintingLayer&quot;:true}" fill-rule="nonzero" stroke-linejoin="miter" stroke-miterlimit="10" stroke-dasharray="" stroke-dashoffset="0" style="mix-blend-mode: normal"><path d="M239.21074,218.2682l-9.70767,-78.94436l12.07614,10.27608l12.50255,77.80592z" data-paper-data="{&quot;index&quot;:null}" fill="#f4a000" stroke="none" stroke-width="0" stroke-linecap="round"/><path d="M257.32369,221.33593l-8.39939,-78.94436l12.73028,12.02046z" data-paper-data="{&quot;index&quot;:null}" fill="#f4a000" stroke="none" stroke-width="0" stroke-linecap="round"/><path d="M225.14225,146.76758l15.37688,81.77897l-25.37699,-19.216z" fill="#f4a000" stroke="none" stroke-width="0" stroke-linecap="round"/><path d="M236.90902,150.06767c0,0 -5.74756,0.29309 -4.763,-3.44059c0.28924,-1.09685 5.14709,-0.58131 5.14709,-0.58131c0,0 0.38978,-3.67378 2.63351,-3.56649c5.15579,0.24655 7.12429,4.8047 7.12429,4.8047l4.70387,2.93913v4.66259l-9.47371,-1.6698l2.50953,0.50321l7.32958,29.94865c0,0 -1.20975,6.64647 -2.84332,10.415c-0.82297,1.89855 -5.17077,7.83647 -5.17077,7.83647l-5.98401,15.39877l-0.6913,5.20057h-3.80217c0,0 0.80756,-3.27544 1.28526,-5.69786c0.84088,-4.26412 3.4816,-21.98269 3.4816,-21.98269l-6.36179,0.93557c0,0 0.08673,5.07929 -0.28149,7.8769c-0.1777,1.35009 -2.71551,3.66419 -2.71551,3.66419l0.27128,9.27441l3.11086,6.10883h-4.49347l-8.09286,-35.26215l17.45943,-12.72159z" fill="#fed158" stroke="none" stroke-width="0" stroke-linecap="round"/><path d="M240.60301,197.69188c0,0 -0.49021,2.43906 -1.19274,3.80853c-0.86679,1.68965 -3.61952,5.03576 -3.61952,5.03576l0.72481,15.01808l-2.93727,-16.04524c0,0 1.14619,-1.53907 1.36785,-2.92805c0.22165,-1.38898 0.22908,-4.32575 0.22908,-4.32575z" fill="#000000" stroke="#000000" stroke-width="2.5" stroke-linecap="round"/><path d="" fill="#f4a000" stroke="none" stroke-width="0" stroke-linecap="round"/><path d="" fill="#fed158" stroke="none" stroke-width="0" stroke-linecap="round"/><path d="" fill="#ffffff" stroke="none" stroke-width="0" stroke-linecap="round"/><path d="" fill="none" stroke="#000000" stroke-width="2.5" stroke-linecap="round"/><path d="" fill="#ffffff" stroke="#000000" stroke-width="2.5" stroke-linecap="round"/><path d="" fill="none" stroke="#000000" stroke-width="2.5" stroke-linecap="round"/><path d="" fill="#000000" stroke="none" stroke-width="0" stroke-linecap="butt"/><path d="" fill="none" stroke="#000000" stroke-width="2.5" stroke-linecap="round"/><path d="" fill="#000000" stroke="none" stroke-width="0" stroke-linecap="round"/><path d="" fill="none" stroke="#000000" stroke-width="2.5" stroke-linecap="round"/><path d="" fill="#000000" stroke="none" stroke-width="0" stroke-linecap="round"/><path d="" fill="#000000" stroke="none" stroke-width="0" stroke-linecap="round"/><path d="" fill="#000000" stroke="none" stroke-width="0" stroke-linecap="round"/><path d="" fill="#000000" stroke="none" stroke-width="0" stroke-linecap="round"/><path d="" fill="#000000" stroke="none" stroke-width="0" stroke-linecap="round"/><path d="" fill="#000000" stroke="none" stroke-width="0" stroke-linecap="round"/><path d="" fill="#000000" stroke="none" stroke-width="0" stroke-linecap="round"/><path d="" fill="#000000" stroke="none" stroke-width="0" stroke-linecap="round"/><path d="" fill="#fed158" stroke="none" stroke-width="0" stroke-linecap="round"/><path d="" fill="#000000" stroke="#000000" stroke-width="2.5" stroke-linecap="round"/><path d="M240.1011,151.90496c0,0 -5.74756,0.28246 -4.763,-3.31579c0.28923,-1.05706 5.14709,-0.56022 5.14709,-0.56022c0,0 0.38978,-3.54054 2.63351,-3.43713c5.15579,0.23761 7.12429,6.15676 7.12429,6.15676l4.70387,2.83253v2.96714l-9.47371,-1.60923l2.50953,0.48495l7.32958,28.86238c0,0 -1.20975,6.4054 -2.84332,10.03724c-0.82298,1.82968 -5.17078,7.55222 -5.17078,7.55222l-5.98401,14.84024l-0.6913,5.01194h-3.80217c0,0 0.80756,-3.15664 1.28526,-5.49119c0.84088,-4.10946 3.4816,-17.82314 3.4816,-17.82314l-6.3618,0.06108c0,0 0.08674,2.37341 -0.28148,5.06954c-0.1777,1.30112 -2.71551,3.53128 -2.71551,3.53128l0.27128,8.93801l3.11086,5.88726h-4.49347l-7.25792,-32.91027l16.62449,-12.66249z" fill="none" stroke="#000000" stroke-width="2.5" stroke-linecap="round"/><path d="M244.86902,144.47647l-2.82793,-0.06166l1.63342,-4.07379z" fill="#000000" stroke="none" stroke-width="0" stroke-linecap="round"/><path d="M247.82021,145.1328l-2.67278,-0.49926l2.32848,-2.96069z" fill="#000000" stroke="none" stroke-width="0" stroke-linecap="round"/><path d="M246.47923,141.50964c0,-0.58371 0.4732,-1.05691 1.05692,-1.05691c0.58372,0 1.05691,0.47319 1.05691,1.05691c0,0.58371 -0.47319,1.05692 -1.05691,1.05692c-0.58372,0 -1.05692,-0.4732 -1.05692,-1.05692z" fill="#000000" stroke="none" stroke-width="0" stroke-linecap="butt"/><path d="M244.12035,149.80865c0,-0.50016 0.40546,-0.90563 0.90563,-0.90563c0.50017,0 0.90563,0.40546 0.90563,0.90563c0,0.50016 -0.40546,0.90564 -0.90563,0.90564c-0.50017,0 -0.90563,-0.40547 -0.90563,-0.90564z" fill="#000000" stroke="none" stroke-width="0" stroke-linecap="butt"/><path d="M249.4922,154.95072l2.98386,-3.01343" fill="none" stroke="#000000" stroke-width="2.5" stroke-linecap="round"/><path d="M234.93126,198.54411l-0.59936,-4.32531l0.62608,4.31768" fill="none" stroke="#000000" stroke-width="2.5" stroke-linecap="round"/><path d="M240.94166,196.16501l0.62608,1.62781c0,0 -0.66966,-1.16744 -0.90588,-2.88863c-0.23622,-1.72119 1.0256,-3.57402 1.0256,-3.57402l-0.87101,1.82964" fill="none" stroke="#000000" stroke-width="2.5" stroke-linecap="round"/><path d="M235.75032,133.41109l2.86549,0.86069l0.91296,-2.81833l1.84313,2.41826l2.43412,-1.93979l-0.28005,6.50478l-5.51494,0.89188z" fill="#000000" stroke="none" stroke-width="0" stroke-linecap="round"/><path d="M240.94265,162.92088l-0.03057,-4.72765l3.93291,2.2976z" fill="#000000" stroke="none" stroke-width="0" stroke-linecap="round"/><path d="M249.19817,175.61685l-3.04554,-3.61611l4.49317,-0.74713z" fill="#000000" stroke="none" stroke-width="0" stroke-linecap="round"/><path d="M253.59455,187.16332l-7.57075,-1.82455l5.23193,-5.37755z" fill="#000000" stroke="none" stroke-width="0" stroke-linecap="round"/><path d="M234.45064,184.55426l0.90326,-4.64066l3.40199,3.02873z" fill="#000000" stroke="none" stroke-width="0" stroke-linecap="round"/><path d="M233.38489,192.46977l-1.80927,-4.36785l4.50871,0.64676z" fill="#000000" stroke="none" stroke-width="0" stroke-linecap="round"/><path d="M225.43627,194.20621l-0.62262,-4.68657l4.18978,1.78676z" fill="#000000" stroke="none" stroke-width="0" stroke-linecap="round"/><path d="M238.61522,188.69514l2.96929,-3.67898l1.58989,4.26837z" fill="#000000" stroke="none" stroke-width="0" stroke-linecap="round"/><path d="M240.98135,180.78743l0.90326,-4.64066l3.40199,3.02873z" fill="#000000" stroke="none" stroke-width="0" stroke-linecap="round"/><path d="M243.05907,169.22785l0.90326,-4.64066l3.40199,3.02873z" fill="#000000" stroke="none" stroke-width="0" stroke-linecap="round"/><path d="M220.97374,200.65732l-0.43243,1.68422l1.15917,0.23533l-1.12654,-6.40129l4.79786,-3.4608" fill="none" stroke="#000000" stroke-width="2.5" stroke-linecap="round"/><path d="M253.7564,189.79978c0,0 1.32006,0.72767 1.96589,2.0645c1.50107,3.10716 2.33242,7.38908 2.33242,7.38908l-3.48798,10.55741l-6.76567,2.51823l-3.43106,2.60547l-0.72662,-2.49326l3.76624,-0.67434l6.04192,-3.52271l1.6577,-9.16958l-4.13893,-2.62245z" fill="#000000" stroke="#000000" stroke-width="2.5" stroke-linecap="round"/><path d="M269.92278,195.00292l-9.0256,5.30272l2.88043,-27.18262z" data-paper-data="{&quot;index&quot;:null}" fill="#f4a000" stroke="none" stroke-width="0" stroke-linecap="round"/><path d="M210.07723,171.21511l9.0256,-5.30272l-2.88043,27.18262z" data-paper-data="{&quot;index&quot;:null}" fill="#f4a000" stroke="none" stroke-width="0" stroke-linecap="round"/><path d="M242.742,140.41007c0,-0.58371 0.4732,-1.05691 1.05692,-1.05691c0.58372,0 1.05691,0.47319 1.05691,1.05691c0,0.58371 -0.47319,1.05692 -1.05691,1.05692c-0.58372,0 -1.05692,-0.4732 -1.05692,-1.05692z" fill="#000000" stroke="none" stroke-width="0" stroke-linecap="butt"/></g></g></svg>