<svg version="1.1" xmlns="http://www.w3.org/2000/svg" xmlns:xlink="http://www.w3.org/1999/xlink" width="228.00885" height="134.68629" viewBox="0,0,228.00885,134.68629"><g transform="translate(-124.10279,-109.27253)"><g data-paper-data="{&quot;isPaintingLayer&quot;:true}" fill="none" fill-rule="nonzero" stroke="#ffffff" stroke-width="7.5" stroke-linecap="round" stroke-linejoin="miter" stroke-miterlimit="10" stroke-dasharray="" stroke-dashoffset="0" style="mix-blend-mode: normal"><path d="M186.65841,182.73534h29.5115l-11.16766,0.04211"/><path d="M225.1709,191.39986l0.30618,-46.23392"/><path d="M127.85279,225.07088l0.05931,14.90953l-0.00652,-88.95962l45.39891,42.37179l-13.57911,19.06607l31.4516,27.26056l-19.25616,-16.78834"/><path d="M213.68711,215.37389l-0.01353,24.48885l0.05128,-28.77545l-33.3059,-27.69326l33.73057,-46.76903l-5.08682,6.67579"/><path d="M225.09288,216.37382l-0.04181,23.56476l0.54011,-118.67624l72.28673,105.09453l10.30463,-9.50718l-8.45693,7.91364"/><path d="M241.77193,182.55187l14.38787,0.03988h-30.63941"/><path d="M288.0178,179.90881l-6.82164,6.29789l38.83265,-35.48766l0.35298,89.47325l31.71263,-0.14001l-6.76697,0.03107"/></g></g></svg>