<svg version="1.1" xmlns="http://www.w3.org/2000/svg" xmlns:xlink="http://www.w3.org/1999/xlink" width="227.95672" height="133.20644" viewBox="0,0,227.95672,133.20644"><g transform="translate(-124.15493,-109.28121)"><g data-paper-data="{&quot;isPaintingLayer&quot;:true}" fill="none" fill-rule="nonzero" stroke="#ffffff" stroke-width="7.5" stroke-linecap="round" stroke-linejoin="miter" stroke-miterlimit="10" stroke-dasharray="" stroke-dashoffset="0" style="mix-blend-mode: normal"><path d="M186.65841,182.73534h29.5115l-11.16766,0.04211"/><path d="M225.1709,191.39986l0.30618,-46.23392"/><path d="M302.60577,238.73766h7.96315l-182.65682,-0.72479l-0.00652,-86.45618l45.39891,41.83588l-13.57911,19.06607l18.62551,15.91013l-6.43007,-5.43791"/><path d="M213.68711,215.37389l-0.01353,12.68364l0.05128,-16.97024l-33.3059,-27.69326l33.73057,-46.76903l-5.08682,6.67579"/><path d="M225.09288,216.37382l-0.04181,11.75955l0.54011,-106.87103l72.28673,105.09453l10.30463,-11.07458l-8.45693,9.25712"/><path d="M225.52039,182.59175h30.63941l-14.38787,-0.03988"/><path d="M288.0178,179.90881l-6.82164,6.29789l38.83265,-35.48766l0.35298,87.74762l31.71263,-0.14001l-6.76697,0.03107"/></g></g></svg>