<svg version="1.1" xmlns="http://www.w3.org/2000/svg" xmlns:xlink="http://www.w3.org/1999/xlink" width="21.40811" height="37.18349" viewBox="0,0,21.40811,37.18349"><g transform="translate(-232.30183,-132.96919)"><g data-paper-data="{&quot;isPaintingLayer&quot;:true}" fill-rule="nonzero" stroke-linejoin="miter" stroke-miterlimit="10" stroke-dasharray="" stroke-dashoffset="0" style="mix-blend-mode: normal"><path d="M234.86087,136.32854l2.63832,1.04443l0.83501,-2.94513l1.70037,2.64819l2.23633,-1.94378l-0.99764,6.97776l-3.66378,0.51086z" fill="#ffcab8" stroke="none" stroke-width="0" stroke-linecap="round"/><path d="" fill="#ffcab8" stroke="none" stroke-width="0" stroke-linecap="round"/><path d="" fill="#ffcab8" stroke="none" stroke-width="0" stroke-linecap="round"/><path d="M237.17828,153.42665c0,0 -5.74756,2.2039 -4.763,-1.39435c0.28923,-1.05706 5.14709,-0.56022 5.14709,-0.56022c0,0 1.20299,-3.54054 3.44672,-3.43713c5.15579,0.23761 4.76978,4.6471 4.76978,4.6471l5.19262,3.8775v3.19176l-7.45688,-0.99652l3.14495,10.51856l-10.63637,0.00016z" fill="#ffcab8" stroke="none" stroke-width="0" stroke-linecap="round"/><path d="" fill="none" stroke="#000000" stroke-width="1" stroke-linecap="round"/><path d="M240.74993,153.88222c0,0 -5.92601,2.2039 -4.94145,-1.39435c0.28923,-1.05706 5.14709,-0.56022 5.14709,-0.56022c0,0 0.38978,-3.54054 2.63351,-3.43713c5.15579,0.23761 5.00213,4.6471 5.00213,4.6471l4.61873,3.8775v2.96714l-6.73851,-0.96857l0.43639,0.30898l3.27632,10.20536l-10.30558,0.03264z" fill="none" stroke="#000000" stroke-width="1" stroke-linecap="round"/><path d="M243.58994,148.09882l-2.08775,0.54741l0.05048,-4.25982z" fill="#000000" stroke="none" stroke-width="0" stroke-linecap="round"/><path d="M246.55321,148.71459l-1.88394,-0.6061l1.21671,-2.78755z" fill="#000000" stroke="none" stroke-width="0" stroke-linecap="round"/><path d="M244.8584,145.509c-0.16412,-0.56016 0.15695,-1.14732 0.71712,-1.31144c0.56017,-0.16412 1.14732,0.15694 1.31144,0.71711c0.16412,0.56016 -0.15694,1.14733 -0.71711,1.31145c-0.56017,0.16412 -1.14733,-0.15695 -1.31145,-0.71712z" fill="#000000" stroke="none" stroke-width="0" stroke-linecap="butt"/><path d="M244.59073,153.79531c0,-0.50016 0.40546,-0.90563 0.90563,-0.90563c0.50017,0 0.90563,0.40546 0.90563,0.90563c0,0.50016 -0.40546,0.90564 -0.90563,0.90564c-0.50017,0 -0.90563,-0.40547 -0.90563,-0.90564z" fill="#000000" stroke="none" stroke-width="0" stroke-linecap="butt"/><path d="M250.8238,155.41693l-1.19647,3.68808" fill="none" stroke="#000000" stroke-width="1" stroke-linecap="round"/><path d="" fill="none" stroke="#000000" stroke-width="1" stroke-linecap="round"/><path d="" fill="none" stroke="#000000" stroke-width="1" stroke-linecap="round"/><path d="M237.1176,136.07332l2.63832,1.04443l0.83501,-2.94513l1.70037,2.64819l2.23633,-1.94378l-0.99764,6.97776l-3.66378,0.51086z" fill="none" stroke="#000000" stroke-width="1" stroke-linecap="round"/><path d="M240.34577,166.35591l0.17797,-4.01992l3.24394,2.12269z" fill="none" stroke="#000000" stroke-width="1" stroke-linecap="round"/><path d="" fill="none" stroke="#000000" stroke-width="1" stroke-linecap="round"/><path d="" fill="none" stroke="#000000" stroke-width="1" stroke-linecap="round"/><path d="" fill="none" stroke="#000000" stroke-width="1" stroke-linecap="round"/><path d="" fill="none" stroke="#000000" stroke-width="1" stroke-linecap="round"/><path d="" fill="none" stroke="#000000" stroke-width="1" stroke-linecap="round"/><path d="" fill="none" stroke="#000000" stroke-width="1" stroke-linecap="round"/><path d="" fill="none" stroke="#000000" stroke-width="1" stroke-linecap="round"/><path d="" fill="none" stroke="#000000" stroke-width="1" stroke-linecap="round"/><path d="" fill="none" stroke="#000000" stroke-width="1" stroke-linecap="round"/><path d="" fill="none" stroke="#000000" stroke-width="1" stroke-linecap="round"/><path d="M240.56627,144.74736c-0.16412,-0.56016 0.15695,-1.14732 0.71712,-1.31144c0.56017,-0.16412 1.14732,0.15694 1.31144,0.71711c0.16412,0.56016 -0.15694,1.14733 -0.71711,1.31145c-0.56017,0.16412 -1.14733,-0.15695 -1.31145,-0.71712z" fill="#000000" stroke="none" stroke-width="0" stroke-linecap="butt"/><path d="" fill="#000000" stroke="#000000" stroke-width="2.5" stroke-linecap="round"/><path d="" fill="none" stroke="#000000" stroke-width="2.5" stroke-linecap="round"/><path d="" fill="#000000" stroke="none" stroke-width="0" stroke-linecap="round"/><path d="" fill="#000000" stroke="none" stroke-width="0" stroke-linecap="round"/><path d="" fill="#000000" stroke="none" stroke-width="0" stroke-linecap="butt"/><path d="" fill="#000000" stroke="none" stroke-width="0" stroke-linecap="butt"/><path d="" fill="none" stroke="#000000" stroke-width="2.5" stroke-linecap="round"/><path d="" fill="none" stroke="#000000" stroke-width="2.5" stroke-linecap="round"/><path d="" fill="none" stroke="#000000" stroke-width="2.5" stroke-linecap="round"/><path d="" fill="#000000" stroke="none" stroke-width="0" stroke-linecap="round"/><path d="" fill="#000000" stroke="none" stroke-width="0" stroke-linecap="round"/><path d="" fill="#000000" stroke="none" stroke-width="0" stroke-linecap="round"/><path d="" fill="#000000" stroke="none" stroke-width="0" stroke-linecap="round"/><path d="" fill="#000000" stroke="none" stroke-width="0" stroke-linecap="round"/><path d="" fill="#000000" stroke="none" stroke-width="0" stroke-linecap="round"/><path d="" fill="#000000" stroke="none" stroke-width="0" stroke-linecap="round"/><path d="" fill="#000000" stroke="none" stroke-width="0" stroke-linecap="round"/><path d="" fill="#000000" stroke="none" stroke-width="0" stroke-linecap="round"/><path d="" fill="#000000" stroke="none" stroke-width="0" stroke-linecap="round"/><path d="" fill="none" stroke="#000000" stroke-width="2.5" stroke-linecap="round"/><path d="" fill="#000000" stroke="#000000" stroke-width="2.5" stroke-linecap="round"/><path d="" fill="#000000" stroke="none" stroke-width="0" stroke-linecap="butt"/><path d="M239.3994,154.50321l-1.17729,15.61187l0.25194,-3.64239" fill="none" stroke="#000000" stroke-width="1" stroke-linecap="round"/><path d="M239.81132,151.74431c0,0 -0.1378,-1.26119 0.7348,-2.0239c0.8726,-0.76271 1.60484,-1.13727 1.60484,-1.13727" fill="none" stroke="#000000" stroke-width="1" stroke-linecap="round"/></g></g></svg>