<svg version="1.1" xmlns="http://www.w3.org/2000/svg" xmlns:xlink="http://www.w3.org/1999/xlink" width="33.96736" height="90.99466" viewBox="0,0,33.96736,90.99466"><g transform="translate(-220.93667,-134.42784)"><g data-paper-data="{&quot;isPaintingLayer&quot;:true}" fill="#ffcab8" fill-rule="nonzero" stroke="none" stroke-width="0" stroke-linecap="round" stroke-linejoin="miter" stroke-miterlimit="10" stroke-dasharray="" stroke-dashoffset="0" style="mix-blend-mode: normal"><path d="M234.86087,136.32854l2.63832,1.04443l0.83501,-2.94513l1.70037,2.64819l2.23633,-1.94378l-0.99764,6.97776l-3.66378,0.51086z"/><path d="M237.06425,201.6917c0,0 -0.13332,2.12293 -0.83585,3.4924c-0.86679,1.68965 -3.26263,5.03576 -3.26263,5.03576l0.46826,15.01808c0,0 -0.84275,0.34963 -1.22239,0.08645c-0.28699,-0.19896 -0.85627,-1.52749 -0.85627,-1.52749l0.15827,-3.01979l-1.11723,-11.58441c0,0 1.14619,-1.53907 1.36785,-2.92805c0.22165,-1.38898 0.22908,-4.60729 0.22908,-4.60729z"/><path d="M250.60572,193.27115c0,0 1.32006,0.72767 1.96589,2.0645c1.50107,3.10716 2.33242,7.38908 2.33242,7.38908l-3.48798,10.55741l-6.76567,2.51823l-3.43106,2.60547l-0.72662,-3.6194l3.76624,-0.67434l5.76038,-2.39657l1.93924,-9.16958l-4.13893,-2.62245z"/><path d="M237.17828,153.42665c0,0 -5.74756,2.2039 -4.763,-1.39435c0.28923,-1.05706 5.14709,-0.56022 5.14709,-0.56022c0,0 1.20299,-3.54054 3.44672,-3.43713c5.15579,0.23761 4.76978,4.6471 4.76978,4.6471l5.19262,3.8775v3.19176l-7.45688,-0.99652l8.74605,28.97469c0,0 -1.08098,6.4054 -2.71455,10.03724c-0.82298,1.82968 -5.17078,7.55222 -5.17078,7.55222l-7.08779,14.84024l0.41248,5.21263h-3.80217c0,0 0.80756,-3.35733 1.28526,-5.69188c0.84088,-4.10946 3.4816,-17.82314 3.4816,-17.82314l-6.3618,0.06108c0,0 0.08674,2.37341 -0.28148,5.06954c-0.1777,1.30112 -3.31757,3.53128 -3.31757,3.53128l0.27128,8.93801l3.71292,5.88726h-4.49347l-7.25792,-32.91027l15.54868,-12.66249z"/></g></g></svg>